<svg xmlns="http://www.w3.org/2000/svg" xmlns:xlink="http://www.w3.org/1999/xlink" id="Layer_1" x="0" y="0" enable-background="new 0 0 40 40" version="1.1" viewBox="0 0 40 40" xml:space="preserve"><g><g><path fill="#CCCCC8" d="M37.5,5h-35C1.1,5,0,6.1,0,7.5V35c0,1.4,1.1,2.5,2.5,2.5h35c1.4,0,2.5-1.1,2.5-2.5V7.5 C40,6.1,38.9,5,37.5,5z M9,7c1,0,1.9,0.8,1.9,1.9S10,10.8,9,10.8S7.1,9.9,7.1,8.9S8,7,9,7z M4.4,7c1,0,1.9,0.8,1.9,1.9 s-0.8,1.9-1.9,1.9S2.5,9.9,2.5,8.9S3.3,7,4.4,7z M37.5,35h-35V12.5h35V35z M37.5,8.8c0,0.7-0.6,1.2-1.2,1.2h-23 C12.6,10,12,9.4,12,8.8v0c0-0.7,0.6-1.2,1.2-1.2h23C36.9,7.5,37.5,8.1,37.5,8.8L37.5,8.8z"/></g></g></svg>
