<svg xmlns="http://www.w3.org/2000/svg" xmlns:xlink="http://www.w3.org/1999/xlink" id="Layer_1" x="0" y="0" enable-background="new 0 0 40 40" version="1.1" viewBox="0 0 40 40" xml:space="preserve"><g><path fill="#CCCCC8" d="M20,2.5C10.3,2.5,2.5,10.3,2.5,20c0,9.7,7.8,17.5,17.5,17.5S37.5,29.7,37.5,20C37.5,10.3,29.7,2.5,20,2.5z M28.5,22.5h-6v6c0,1.5-1,2.5-2.5,2.5c-1.5,0-2.5-0.9-2.5-2.5v-6h-6c-1.5,0-2.5-1-2.5-2.5c0-1.5,0.9-2.5,2.5-2.5h6v-6 c0-1.5,1-2.5,2.5-2.5c1.5,0,2.5,0.9,2.5,2.5v6h6c1.5,0,2.5,1,2.5,2.5C30.9,21.5,30,22.5,28.5,22.5z"/></g></svg>