<svg xmlns="http://www.w3.org/2000/svg" xmlns:xlink="http://www.w3.org/1999/xlink" id="Layer_1" x="0" y="0" enable-background="new 0 0 112 112" version="1.1" viewBox="0 0 112 112" xml:space="preserve"><circle cx="56" cy="56" r="56"/><path fill="#FFF" d="M86.4,71.8L61.7,28.9c-2.5-4.4-8.8-4.4-11.3,0L25.6,71.8c-2.5,4.4,0.6,9.8,5.7,9.8h49.6	C85.8,81.6,89,76.1,86.4,71.8z M52.4,36.8c0-2,1.6-3.6,3.6-3.6s3.6,1.6,3.6,3.6v22.4c0,2-1.6,3.6-3.6,3.6s-3.6-1.6-3.6-3.6V36.8z M56,77.1c-3,0-5.4-2.4-5.4-5.4s2.4-5.4,5.4-5.4c3,0,5.4,2.4,5.4,5.4S59,77.1,56,77.1z"/></svg>
