<svg xmlns="http://www.w3.org/2000/svg" xmlns:xlink="http://www.w3.org/1999/xlink" id="Layer_1" x="0" y="0" enable-background="new 0 0 112 112" version="1.1" viewBox="0 0 112 112" xml:space="preserve"><circle cx="56" cy="56" r="56"/><g><path fill="#FFF" d="M48,52.8h4V84c0,2.2,1.8,4,4,4H56c2.2,0,4-1.8,4-4V52.8h4V31.2H48V52.8z"/><path fill="#FFF" d="M44,28.8c-0.9,0-1.6,0.7-1.6,1.6v23.2c0,0.9,0.7,1.6,1.6,1.6s1.6-0.7,1.6-1.6V30.4 C45.6,29.5,44.9,28.8,44,28.8z"/><path fill="#FFF" d="M68,28.8c-0.9,0-1.6,0.7-1.6,1.6v23.2c0,0.9,0.7,1.6,1.6,1.6s1.6-0.7,1.6-1.6V30.4 C69.6,29.5,68.9,28.8,68,28.8z"/><path fill="#FFF" d="M36,28L36,28c-2.3,0-4,1.8-4,4V52c0,2.2,1.8,4,4,4H36c2.2,0,4-1.8,4-4V32C40,29.8,38.2,28,36,28z"/><path fill="#FFF" d="M76,28L76,28c-2.3,0-4,1.8-4,4V52c0,2.2,1.8,4,4,4H76c2.2,0,4-1.8,4-4V32C80,29.8,78.2,28,76,28z"/></g><rect width="0" height="0" x="56" y="56"/></svg>