<svg xmlns="http://www.w3.org/2000/svg" xmlns:xlink="http://www.w3.org/1999/xlink" id="Layer_1" x="0" y="0" enable-background="new 0 0 112 112" version="1.1" viewBox="0 0 112 112" xml:space="preserve"><circle cx="56" cy="56" r="56"/><rect width="0" height="0" x="56" y="56"/><path fill="#FFF" d="M76,50v-4.2C76,34.9,67.1,26,56.2,26h-0.3C44.9,26,36,34.9,36,45.8V50c-2.2,0-4,1.8-4,4v16	c0,8.8,7.2,16,16,16h16c8.8,0,16-7.2,16-16V54C80,51.8,78.2,50,76,50z M44,50v-4.2C44,39.3,49.3,34,55.8,34h0.3	C62.7,34,68,39.3,68,45.8V50H44z"/></svg>