<svg xmlns="http://www.w3.org/2000/svg" xmlns:xlink="http://www.w3.org/1999/xlink" id="Layer_1" x="0" y="0" enable-background="new 0 0 40 40" version="1.1" viewBox="0 0 40 40" xml:space="preserve"><g><path fill="#CCCCC8" d="M31.8,0.2C25.3-1,19.6,4.3,20,10.7c0,0,0,0,0,0l9.2,9.2c0,0,0,0,0,0c6.5,0.5,11.8-5.2,10.6-11.8 C39.1,4.1,35.9,0.9,31.8,0.2z"/><path fill="#CCCCC8" d="M19.1,13.8L2.4,32.4c-1.3,1.5-1.3,3.7,0.1,5.1l0,0c1.4,1.4,3.7,1.5,5.1,0.1l18.6-16.8L19.1,13.8z M16.8,25 c-0.5,0.5-1.4,0.5-1.9-0.1c-0.4-0.5-0.3-1.2,0.2-1.7l3.1-3.1c0.5-0.5,1.2-0.6,1.7-0.2c0.6,0.5,0.7,1.4,0.1,1.9L16.8,25z"/></g></svg>
