<svg xmlns="http://www.w3.org/2000/svg" xmlns:xlink="http://www.w3.org/1999/xlink" id="Layer_1" x="0" y="0" version="1.1" viewBox="0 0 20 20" xml:space="preserve" style="enable-background:new 0 0 20 20"><path d="M10,0C4.477173,0,0,4.477112,0,10c0,5.522827,4.477173,10,10,10s10-4.477173,10-10C20,4.477112,15.522827,0,10,0z M15,13.333313C15,14.253784,14.253784,15,13.333313,15H5V6.666626C5,5.746155,5.746216,5,6.666687,5h6.666626l-6.073242,6.073242	l1.666687,1.666626L15,6.666626V13.333313z"/><polygon points="6.667 11.667 6.667 13.333 8.333 13.333 8.573 13.093 6.907 11.427"/></svg>
