<svg xmlns="http://www.w3.org/2000/svg" xmlns:xlink="http://www.w3.org/1999/xlink" id="Layer_1" x="0" y="0" version="1.1" viewBox="0 0 20 20" xml:space="preserve" style="enable-background:new 0 0 20 20"><path d="M10,0C4.477173,0,0,4.477173,0,10s4.477173,10,10,10s10-4.477173,10-10S15.522827,0,10,0z M13.290771,6.201233	c0,0.82251-0.666809,1.489319-1.48938,1.489319c-1.370911,0-2.482239,1.111389-2.482239,2.4823v3.872314	c0,0.57019-0.480713,1.028198-1.05896,0.990784c-0.527771-0.03418-0.92688-0.495911-0.92688-1.02478V5.90332H7.35321	c0.688721,0,1.293762,0.354858,1.644897,0.890991c0.781799-0.667664,1.844238-1.089539,3.2005-1.089539h1.092163V6.201233z"/></svg>