<svg xmlns="http://www.w3.org/2000/svg" xmlns:xlink="http://www.w3.org/1999/xlink" id="Layer_1" x="0" y="0" version="1.1" viewBox="0 0 20 20" xml:space="preserve" style="enable-background:new 0 0 20 20"><path d="M10,0C4.477173,0,0,4.477112,0,10c0,5.522827,4.477173,10,10,10s10-4.477173,10-10C20,4.477112,15.522827,0,10,0z M16.367188,14.777344H3.633301V5.222656h6.893433C9.707886,5.502441,8.887207,5.91626,8.174194,6.509766H4.92041v6.980469	h10.159668v-2.260132l1.287109-0.997742V14.777344z M13.349426,11.306335l-0.004822-3.057434	c-3.23053-0.85022-6.312317,3.129211-6.312317,3.129211c0-5.618164,6.201294-5.644043,6.315369-5.644043	c0.00116,0,0.00177,0,0.00177,0v-2.31488l5.087585,3.943481L13.349426,11.306335z"/></svg>