<svg xmlns="http://www.w3.org/2000/svg" xmlns:xlink="http://www.w3.org/1999/xlink" id="Layer_1" x="0" y="0" version="1.1" viewBox="0 0 20 20" xml:space="preserve" style="enable-background:new 0 0 20 20"><path d="M10,0C4.477173,0,0,4.477112,0,10c0,5.522827,4.477173,10,10,10s10-4.477173,10-10C20,4.477112,15.522827,0,10,0z M4.166687,11.666687C3.246216,11.666687,2.5,10.920471,2.5,10s0.746216-1.666626,1.666687-1.666626S5.833313,9.079529,5.833313,10	S5.087158,11.666687,4.166687,11.666687z M10,11.666687c-0.920471,0-1.666687-0.746216-1.666687-1.666687	S9.079529,8.333374,10,8.333374S11.666687,9.079529,11.666687,10S10.920471,11.666687,10,11.666687z M15.833313,11.666687	c-0.920471,0-1.666626-0.746216-1.666626-1.666687s0.746155-1.666626,1.666626-1.666626S17.5,9.079529,17.5,10	S16.753784,11.666687,15.833313,11.666687z"/></svg>