<svg xmlns="http://www.w3.org/2000/svg" xmlns:xlink="http://www.w3.org/1999/xlink" id="Layer_1" x="0" y="0" version="1.1" viewBox="0 0 20 20" xml:space="preserve" style="enable-background:new 0 0 20 20"><rect width="5.733" height=".4" x="7.133" y="10.467"/><rect width="5.733" height=".4" x="7.133" y="8.467"/><rect width="5.733" height=".4" x="7.133" y="9.467"/><rect width="5.733" height=".4" x="7.133" y="7.467"/><rect width="5.733" height=".4" x="7.133" y="12.467"/><rect width="5.733" height=".4" x="7.133" y="13.467"/><rect width="5.733" height=".4" x="7.133" y="11.467"/><path d="M10,0C4.477173,0,0,4.477112,0,10c0,5.522827,4.477173,10,10,10s10-4.477173,10-10C20,4.477112,15.522827,0,10,0z M13.333313,14.666626H6.666687V5.333313h6.666626V14.666626z"/></svg>