<svg xmlns="http://www.w3.org/2000/svg" xmlns:xlink="http://www.w3.org/1999/xlink" id="Layer_1" x="0" y="0" version="1.1" viewBox="0 0 20 20" xml:space="preserve" style="enable-background:new 0 0 20 20"><polygon points="11.372 8.039 10 9.411 8.628 8.039 8.039 8.628 9.411 10 8.039 11.372 8.628 11.961 10 10.589 11.372 11.961 11.961 11.372 10.589 10 11.961 8.628"/><path d="M10,0C4.477173,0,0,4.477112,0,10c0,5.522827,4.477173,10,10,10s10-4.477173,10-10C20,4.477112,15.522827,0,10,0z M12.5,16.666687l-2.5-2.5l-2.5,2.5V5.833313V5.81665c0-0.911255-0.755371-1.650024-1.666687-1.650024h5	c0.920471,0,1.666687,0.746216,1.666687,1.666687V16.666687z"/></svg>